<svg xmlns="http://www.w3.org/2000/svg" width="66.973" height="64.703" viewBox="0 0 66.973 64.703"><defs><style>.a{fill:#ea9d2d;}.b{fill:#c38325;}.c{fill:#f7ba61;}.d{fill:#f55648;}.e{fill:#da922a;}.f{fill:#6cbae5;}.g{fill:#89b140;}.h{fill:#f27e55;}.i{fill:#d970a2;}.j{fill:#3bd6d0;}.k{fill:#aedee2;}.l{fill:#6fbbc6;}</style></defs><path class="a" d="M156.2,356.3h27.244v18.162H156.2Zm0,0" transform="translate(-135.771 -309.756)"/><path class="b" d="M183.447,280.867H156.2l4.54-11.352h18.162Zm0,0" transform="translate(-135.771 -234.327)"/><path class="c" d="M103.4,280.867H95.457L100,269.516h7.946Zm0,0" transform="translate(-82.971 -234.327)"/><path class="c" d="M334.3,280.867h7.945l-4.54-11.352h-7.946Zm0,0" transform="translate(-286.627 -234.327)"/><path class="d" d="M241.115,364.243l-3.405-1.135-3.406,1.135V356.3h6.811Zm0,0" transform="translate(-203.656 -309.756)"/><path class="b" d="M293.182,445.345h-5.676a1.135,1.135,0,1,1,0-2.271h5.676a1.135,1.135,0,0,1,0,2.271Zm0,0" transform="translate(-248.912 -385.183)"/><path class="e" d="M190.914,269.516h18.162v11.352H190.914Zm0,0" transform="translate(-165.941 -234.327)"/><path class="c" d="M410.539,110.312a5.676,5.676,0,1,1-5.675-5.675A5.675,5.675,0,0,1,410.539,110.312Zm0,0" transform="translate(-346.971 -91.015)"/><path class="f" d="M384.5,153.7a5.676,5.676,0,1,1-5.676-5.676A5.676,5.676,0,0,1,384.5,153.7Zm0,0" transform="translate(-324.341 -128.726)"/><path class="d" d="M436.57,153.7a5.676,5.676,0,1,1-5.676-5.676A5.676,5.676,0,0,1,436.57,153.7Zm0,0" transform="translate(-369.597 -128.726)"/><path class="g" d="M402.94,153.247a5.638,5.638,0,0,1,2.225-4.061,5.614,5.614,0,0,0-5.63-.707A5.665,5.665,0,0,0,402.94,153.247Zm0,0" transform="translate(-347.273 -128.728)"/><path class="h" d="M442.578,149.186a5.639,5.639,0,0,1,2.225,4.061,5.667,5.667,0,0,0,3.406-4.768A5.614,5.614,0,0,0,442.578,149.186Zm0,0" transform="translate(-384.686 -128.728)"/><path class="i" d="M429.76,188.4c0-.155-.034-.3-.045-.454a5.678,5.678,0,0,1-4.45,0c-.011.152-.045.3-.045.454a5.647,5.647,0,0,0,2.27,4.514A5.646,5.646,0,0,0,429.76,188.4Zm0,0" transform="translate(-369.597 -163.426)"/><path class="j" d="M427.792,156.9a5.638,5.638,0,0,0-2.225,4.061,5.678,5.678,0,0,0,4.45,0A5.639,5.639,0,0,0,427.792,156.9Zm0,0" transform="translate(-369.899 -136.444)"/><path class="c" d="M207.54,114.5l-7.946-6.421,7.946-6.421,7.946,6.421Zm0,0" transform="translate(-173.486 -88.428)"/><path class="k" d="M207.54,65.409l-7.946-6.421,7.946-6.422,7.946,6.422Zm0,0" transform="translate(-173.486 -45.756)"/><path class="i" d="M207.54,13.343l-7.946-6.422L207.54.5l7.946,6.421Zm0,0" transform="translate(-173.486 -0.5)"/><path class="c" d="M28.707,92.8a5.676,5.676,0,1,0-9.051,4.541h-.031v5.675h6.811V97.344h-.031A5.654,5.654,0,0,0,28.707,92.8Zm0,0" transform="translate(-15.085 -75.777)"/><path class="a" d="M53.2,140.884a1.135,1.135,0,0,1-1.135-1.135V131.8a1.135,1.135,0,0,1,2.271,0v7.946A1.135,1.135,0,0,1,53.2,140.884Zm0,0" transform="translate(-45.256 -113.641)"/><path class="a" d="M45.661,117.853a2.27,2.27,0,1,1,2.27-2.27A2.27,2.27,0,0,1,45.661,117.853Zm0,0" transform="translate(-37.715 -98.556)"/><path class="l" d="M34.711,200.094h6.811v1.135a3.406,3.406,0,0,1-6.811,0Zm0,0" transform="translate(-30.171 -173.986)"/><path class="k" d="M147.523,139.348h2.271v2.27h-2.271Zm0,0" transform="translate(-128.226 -121.185)"/><g transform="translate(0 5.676)"><path class="c" d="M52.066,43.891h2.27v2.27h-2.27Zm0,0" transform="translate(-45.256 -43.891)"/><path class="c" d="M104.137,61.246h2.27v2.27h-2.27Zm0,0" transform="translate(-90.515 -58.976)"/><path class="c" d="M0,61.246H2.27v2.27H0Zm0,0" transform="translate(0 -58.976)"/></g><path class="k" d="M251.66,226.129h2.27v2.27h-2.27Zm0,0" transform="translate(-218.741 -196.615)"/><path class="k" d="M364.477,78.6h2.27v2.27h-2.27Zm0,0" transform="translate(-316.801 -68.385)"/></svg>