<svg xmlns="http://www.w3.org/2000/svg" width="67.271" height="62.799" viewBox="0 0 67.271 62.799"><defs><style>.a{fill:#f7be56;}.b{fill:#c4c4c6;}.c{fill:#27a2db;}.d{fill:#ebf0f3;}.e{fill:#fcd462;}.f{fill:#3a556a;}.g{fill:#d5d6db;}</style></defs><path class="a" d="M47.184,59.971h6.105v8.306H47.184Z" transform="translate(-20.122 -24.386)"/><path class="b" d="M58.728,71.511a6.293,6.293,0,0,0-1.634-1.287l-3.932-2.155-.643-.353-.375.074h0l-3.565.705-3.562-.7h0l-.379-.075L44,68.063l-3.943,2.16A6.285,6.285,0,0,0,36.8,75.731v7.418a2.235,2.235,0,0,0,2.235,2.235h19.09a2.235,2.235,0,0,0,2.235-2.235V75.731A6.274,6.274,0,0,0,58.728,71.511Z" transform="translate(-18.464 -25.623)"/><path class="c" d="M52.142,70.084l-.818-1.417-.82-.022-.816.022-.818,1.417.8,1.389L48.855,83.49,50.5,85.279,52.142,83.4l-.8-11.929Z" transform="translate(-20.389 -25.771)"/><path class="d" d="M53.869,65.862,50.816,68.2l2.537,3.274,1.4-4.054Z" transform="translate(-20.702 -25.327)"/><path class="d" d="M47.015,65.862,50.068,68.2,47.53,71.475l-1.4-4.054Z" transform="translate(-19.954 -25.327)"/><g transform="translate(24.622 27.421)"><ellipse class="e" cx="1.206" cy="0.578" rx="1.206" ry="0.578" transform="translate(9.412 7.931) rotate(-85.869)"/><path class="e" d="M45,57.008c.355-.018.683.566.732,1.305s-.2,1.353-.553,1.371-.683-.566-.732-1.305c-.018-.264-.212-.669-.163-.879A.727.727,0,0,1,45,57.008Z" transform="translate(-44.281 -51.334)"/><path class="e" d="M54.43,58.273l-.18-5.311-.63-1.712-3.68-.993-3.68.993-.63,1.712-.18,5.311a4.22,4.22,0,0,0,.27,2.234,6.934,6.934,0,0,0,1.559,2,3.636,3.636,0,0,0,2.661.862,3.636,3.636,0,0,0,2.661-.862,6.934,6.934,0,0,0,1.559-2A4.22,4.22,0,0,0,54.43,58.273Z" transform="translate(-44.46 -50.257)"/></g><path class="f" d="M47.243,50.624s.651,2.365,6.267,1.95l.216,4.69s.081-1.535.448-1.369.122,1.286-.2,2.033a1.653,1.653,0,0,0,.181,1.474,14.475,14.475,0,0,0,1-3.41,9.765,9.765,0,0,0-.216-4.911c-.692-1.95-5.982-6.224-8.627-2.324A3.112,3.112,0,0,0,44,52.034c0,2.821.035,5.494,1.256,7.239l-.022-1.643s-1.173-1.23-.4-1.728.752.987.752.987l.276-3.7S47.325,51.785,47.243,50.624Z" transform="translate(-19.614 -22.343)"/><path class="a" d="M30.714,75.589l-3.029,1.017-2.8-1.017V67.665h5.824Z" transform="translate(-16.563 -25.615)"/><path class="g" d="M35.9,78.674a6,6,0,0,0-1.559-1.228L30.593,75.39l-.613-.336-.358.07c-.007.056-.017.129-.025.192L26.125,77.69l-3.276-2.356c-.009-.069-.019-.148-.027-.208l-.361-.072-.6.331-3.762,2.061A6,6,0,0,0,14.981,82.7v4.525a2.367,2.367,0,0,0,2.367,2.367H35.091a2.367,2.367,0,0,0,2.367-2.367V82.7A5.986,5.986,0,0,0,35.9,78.674Z" transform="translate(-14.981 -26.794)"/><path class="d" d="M31.365,73.285l-2.4,3.3,1.906,2.055,1.339-3.867Z" transform="translate(-17.214 -26.512)"/><path class="d" d="M24.7,73.285l2.4,3.3L25.2,78.64l-1.339-3.867Z" transform="translate(-16.398 -26.512)"/><g transform="translate(6.229 34.262)"><ellipse class="e" cx="1.15" cy="0.552" rx="1.15" ry="0.552" transform="translate(8.781 7.503) rotate(-80.679)"/><ellipse class="e" cx="0.552" cy="1.15" rx="0.552" ry="1.15" transform="translate(0 5.297) rotate(-4.131)"/><path class="e" d="M31.8,66.045l-.172-5.067-.6-1.634L27.519,58.4l-3.511.947-.6,1.634-.172,5.067a4.026,4.026,0,0,0,.257,2.131,6.615,6.615,0,0,0,1.488,1.91,3.468,3.468,0,0,0,2.538.823,3.468,3.468,0,0,0,2.538-.823,6.615,6.615,0,0,0,1.488-1.91A4.026,4.026,0,0,0,31.8,66.045Z" transform="translate(-22.521 -58.397)"/></g><path class="d" d="M27.553,79.61v7.425h.875V79.61c.114-1.815.749-2.328.749-2.328l-.368-.4-.782.934-.658-.934-.564.4S27.439,77.8,27.553,79.61Z" transform="translate(-16.869 -27.087)"/><path class="f" d="M32.43,58.86c-.66-1.86-5.707-5.937-8.231-2.217A2.969,2.969,0,0,0,22,59.771c0,2.692-.131,5.24,1.033,6.9l.144-1.566s-1.119-1.173-.381-1.648c.488-.314.644.2.694.582h.051l.237-3.169s1.4-1.341,1.32-2.449c0,0,.621,2.256,5.979,1.86l.18,3.893h.087c.059-.389.17-.815.366-.726.349.158.116,1.227-.194,1.94a1.68,1.68,0,0,0,.1,1.407,12.592,12.592,0,0,0,1.025-3.254A9.316,9.316,0,0,0,32.43,58.86Z" transform="translate(-16.1 -23.613)"/><path class="a" d="M76.232,76.529l-3.227,1.083-2.977-1.083V68.09h6.2Z" transform="translate(-23.769 -25.682)"/><path class="g" d="M81.759,79.815A6.4,6.4,0,0,0,80.1,78.507l-4-2.189-.653-.358-.381.075-.026.2-3.7,2.529-3.489-2.51c-.01-.078-.02-.153-.028-.221l-.385-.077-.644.352-4.007,2.2a6.387,6.387,0,0,0-3.315,5.6v3.762a1.872,1.872,0,0,0,1.872,1.872h20.2a1.872,1.872,0,0,0,1.872-1.872V84.1A6.375,6.375,0,0,0,81.759,79.815Z" transform="translate(-22.085 -26.939)"/><path class="d" d="M76.925,74.075l-2.554,3.514,2.03,2.189,1.426-4.119Z" transform="translate(-24.463 -26.638)"/><path class="d" d="M69.832,74.075l2.554,3.514-2.03,2.189L68.93,75.66Z" transform="translate(-23.594 -26.638)"/><ellipse class="e" cx="1.226" cy="0.587" rx="1.226" ry="0.587" transform="translate(53.394 42.099) rotate(-80.679)"/><ellipse class="e" cx="0.587" cy="1.226" rx="0.587" ry="1.226" transform="translate(44.007 39.738) rotate(-4.131)"/><path class="e" d="M77.392,66.364l-.183-5.4-.64-1.74L72.83,58.219l-3.739,1.009-.64,1.74-.183,5.4a4.288,4.288,0,0,0,.274,2.27,7.045,7.045,0,0,0,1.584,2.034,4.608,4.608,0,0,0,5.407,0,7.045,7.045,0,0,0,1.584-2.034A4.288,4.288,0,0,0,77.392,66.364Z" transform="translate(-23.481 -24.106)"/><path class="d" d="M72.865,80.812V88.72H73.8V80.812c.122-1.933.8-2.479.8-2.479L74.2,77.91l-.833.995-.7-.995-.6.423S72.744,78.879,72.865,80.812Z" transform="translate(-24.095 -27.25)"/><path class="f" d="M68.16,65.282h.252c.034-.349.121-1.217.31-3.064.266-2.6,1.566-3.321,4.521-2.177.329.127,1.211-.67,2.364-.363s1.27,0,1.064,1.563.525,2.612.318,3.449a2.235,2.235,0,0,0-.073.591h.513a23.8,23.8,0,0,0,.837-3.9,9.32,9.32,0,0,0-.342-3.979c-.414-1.088-3.461-2.508-5.943-2.2s-4.392,2.243-4.539,3.833A34.916,34.916,0,0,0,68.16,65.282Z" transform="translate(-23.353 -23.618)"/><path class="e" d="M43.238,41.446,50.4,29.49A5.761,5.761,0,0,1,55.606,26.7l15.493-1.3,8.576,11.453-11.823,10.8L56.938,51.9h0A5.255,5.255,0,0,1,58.7,44.421c2.634-1.506,5.313-3.114,5.313-3.114l-.126-5.731-8.195-1.65L51.831,39.31a9.082,9.082,0,0,1-7.7,3.783h0A1.088,1.088,0,0,1,43.238,41.446Z" transform="translate(-19.467 -18.866)"/><path class="c" d="M0,0H9.931V19.56H0Z" transform="translate(49.396 4.608) rotate(-27.641)"/></svg>