<svg xmlns="http://www.w3.org/2000/svg" width="116.398" height="117.73" viewBox="0 0 116.398 117.73"><defs><style>.a{fill:#344a5e;}.b{fill:#f3705a;}.c{fill:#ffd15c;}.d{fill:#f7b64c;}.e{fill:#f3f3f3;}.f{fill:#66c6b9;}.g{fill:#4abaa5;}.h{fill:#415a6b;}.i{fill:#ced6e0;}</style></defs><path class="a" d="M36.455,397.451H70.4c.727-7.758,1.212-20.123-2.425-28.124-5.576-12.85-30.306-5.091-32.488-4.122,0,0-1.455,11.395-1.455,17.456C34.03,386.057,35.485,392.36,36.455,397.451Z" transform="translate(-26.962 -279.721)"/><path class="b" d="M94.539,57.167A10.945,10.945,0,0,0,86.3,60.8V72.926a11.348,11.348,0,0,0,8.243,3.637,10.719,10.719,0,0,0,9.213-4.849v-9.7A11.034,11.034,0,0,0,94.539,57.167Z" transform="translate(-67.348 -44.173)"/><path class="c" d="M99.146,62.734,96.964,76.069l-14.789.485L80.963,63.7l4.849-3.394h0a3.366,3.366,0,0,0-.485-2.667,20.7,20.7,0,0,1-2.667-8.971l-.727-6.789s8-6.546,11.395-4.364,4.364,6.789,4.364,6.789-.243,7.273-.97,9.7a24.65,24.65,0,0,1-.97,3.152Z" transform="translate(-63.227 -28.648)"/><g transform="translate(17.736 8.427)"><path class="c" d="M99.146,62.734,96.964,76.069l-14.789.485L80.963,63.7l4.849-3.394h0a3.366,3.366,0,0,0-.485-2.667,20.7,20.7,0,0,1-2.667-8.971l-.727-6.789s8-6.546,11.395-4.364,4.364,6.789,4.364,6.789-.243,7.273-.97,9.7a24.65,24.65,0,0,1-.97,3.152Z" transform="translate(-80.963 -37.075)"/></g><path class="d" d="M86.975,125.918s1.455,3.637,4.607,3.394,5.334-3.152,5.819-3.879a9.112,9.112,0,0,1-5.334,7.273,15.869,15.869,0,0,1-8.971,1.7Z" transform="translate(-64.875 -96.923)"/><path class="e" d="M64.721,180.319c5.091,2.909,10.425,1.939,17.214-.485L78.3,222.989c-4.121,1.7-15.759,2.425-18.668-.485Z" transform="translate(-46.743 -138.959)"/><ellipse class="f" cx="3.152" cy="8.971" rx="3.152" ry="8.971" transform="translate(6.583 52.513)"/><path class="a" d="M35,167.52l-2.909,11.395L28.7,178.43s2.425-13.335,2.667-16.971a7.107,7.107,0,0,1,2.667-5.091Z" transform="translate(-22.841 -120.826)"/><path class="g" d="M43.534,146.767s-4.121,1.455-5.334,1.7a3.579,3.579,0,0,0-3.152,3.879c0,2.909,0,7.516-.243,10.425s.727,23.76-.727,30.063-2.182,9.94-2.182,9.94a9.42,9.42,0,0,0,8.971,1.7s6.3-4.607,5.091-19.638-2.909-22.063-2.909-27.881C43.291,151.374,43.534,146.767,43.534,146.767Z" transform="translate(-25.313 -113.408)"/><path class="f" d="M74.618,146.767l-1.7,5.576a22.654,22.654,0,0,0-.97,16.244c2.909,8.728,4.121,12.85,4.121,16.486a21.9,21.9,0,0,0-.243-8.243,55.066,55.066,0,0,1,0-21.093C77.527,146.767,74.618,146.767,74.618,146.767Z" transform="translate(-55.427 -113.408)"/><path class="g" d="M113.772,142.5a100.857,100.857,0,0,0,12.85,4.122c4.849.97-4.607,56.247-4.607,56.247l-11.637.727c-4.122-.727-6.789-2.182-8.243-4.364,0,0-3.637-9.455,0-29.093C104.316,159.472,113.772,146.865,113.772,142.5Z" transform="translate(-78.337 -110.111)"/><path class="c" d="M88.721,288.924s4.364-.485,6.3-.97,5.334-1.455,5.334-1.455l1.212,7.273s-5.819.485-8.243,1.455A29.068,29.068,0,0,1,86.3,296.44Z" transform="translate(-67.348 -221.38)"/><path class="f" d="M116.843,133.967a17.368,17.368,0,0,1-.485,8.486c-1.455,4.121-8.243,14.547-8.728,21.093,0,0,1.212-4.364,2.909-6.546S121.692,145.6,121.692,145.6l-1.94-2.909,2.425-.727s-.485-3.879-1.455-5.091C119.995,135.422,117.085,134.452,116.843,133.967Z" transform="translate(-83.833 -103.517)"/><path class="b" d="M78.341,25.3s-3.637-.97-5.576,1.7-3.152,9.213-3.152,11.88,3.637,5.091,3.879,9.213c0,4.121-4.364,6.546-5.334,12.122-.97,5.334,0,7.516,0,7.516s-3.394-5.091-3.152-8.243c0-3.152.727-5.819,0-9.7s-1.939-8.971-.727-14.547,4.849-18.668,14.547-15.759c0,0,3.152-1.455,5.334,3.637s3.152,7.758,3.637,10.91,0,15.517.97,18.911A72.554,72.554,0,0,0,91.675,60.7s-4.607-5.576-5.576-8-3.394-8.971-3.394-9.455c0,0,2.182-4.364,1.939-8.243S80.28,26.759,78.341,25.3Z" transform="translate(-49.937 -14.734)"/><path class="f" d="M24.547,190.891c-.727,1.939-.727,8.971-.727,8.971h-.243c-.97,0-7.031-.485-11.637-.97-3.152-.243-5.576-.485-6.061-.485-1.212-.243-2.425-1.939-2.667-4.607a25.965,25.965,0,0,1,0-7.516,60.448,60.448,0,0,1,2.667-9.7,29.681,29.681,0,0,0,.727-4.121A69,69,0,0,1,10,162.04c1.7-3.637,4.121-4.607,4.364-4.607a3.217,3.217,0,0,0-1.7,3.152c0,3.152,0,7.516-.243,10.425-.243.97,0,4.364,0,8.728h0l-.727,8.728h.727l10.668.243h2.425C25.516,188.951,25.516,188.951,24.547,190.891Z" transform="translate(-2.931 -121.649)"/><path class="b" d="M359.558,102.259a31.719,31.719,0,0,1-2.182,6.789,16.7,16.7,0,0,0-.727,1.939,6.08,6.08,0,0,1-.97,1.7c0,.243-.242.243-.242.485s-.242.243-.242.485l-.727.727-.727.727c-.243.243-.243.485-.485.727-.242.485-.485,1.212-.727,1.7a19.013,19.013,0,0,0-.485,3.394v0a17.17,17.17,0,0,1,.242-3.394c.243-.727.243-1.212.485-1.939.242-.243.242-.727.485-.97l.727-.727.242-.243a5.666,5.666,0,0,0-1.7,1.7,4.1,4.1,0,0,0-.727,2.425,23.863,23.863,0,0,1-6.3,11.637c.485-2.182,0-4.849.727-7.031.243-.97.97-1.939,1.212-2.909.242-.485.242-1.212.485-1.939a39.043,39.043,0,0,1,3.637-11.395,11.326,11.326,0,0,0,1.212-2.425,22.714,22.714,0,0,0,.97-3.879c.243-1.455.485-3.152.727-4.607l3.879-.727A10.884,10.884,0,0,1,359.558,102.259Z" transform="translate(-267.634 -73.021)"/><path class="c" d="M385.642,40.828a28.018,28.018,0,0,0-3.152,3.637c-.242.97-.485,3.879-.485,3.879a8.3,8.3,0,0,1,.242,2.667,12.989,12.989,0,0,0,1.212,7.273,33.08,33.08,0,0,0,2.909,4.849c-2.424,5.334-3.879,12.607-4.607,20.608l.243,3.637,15.031-22.063L401.4,48.343,391.946,40.1Z" transform="translate(-295.657 -30.985)"/><path class="d" d="M403.243,126.453c-3.394,2.425-5.576.97-5.576.97l-.97,4.364c7.031-1.939,10.425-8.486,10.425-8.486S406.637,124.028,403.243,126.453Z" transform="translate(-307.197 -95.275)"/><path class="a" d="M330.612,229.489h30.063c1.212-6.3,3.394-20.608,1.939-29.336-1.939-11.153,1.94-42.913,1.94-42.913s-6.789-11.637-10.91-12.607c0,0-6.546,13.577-10.91,20.608,0,0-2.667-6.546-1.7-8.971a23.692,23.692,0,0,0,.97-8.971c-.242-1.939,2.182-1.939,2.182-1.939a13.382,13.382,0,0,1-2.909,1.212h0c-.727,6.061-5.091,11.153-7.273,16.729a41.993,41.993,0,0,0-2.667,8.971,36.068,36.068,0,0,1-2.182,7.273c0,8.243-.242,16-.727,18.183,0,0,0,17.214.97,23.275A58.97,58.97,0,0,0,330.612,229.489Z" transform="translate(-254.447 -111.759)"/><g transform="translate(69.377 32.632)"><path class="g" d="M394.135,203.694a3.056,3.056,0,0,1-3.152-3.152c-.242-5.091-.727-17.456-1.455-20.365-.97-3.637,1.455-20.608,2.182-22.79.97-2.182,8.971-13.819,8.971-13.819s10.425,3.879,12.607,5.091l2.182,1.212s-7.516,25.214-4.849,32.488,3.152,16.971,3.152,16.971A55.036,55.036,0,0,1,394.135,203.694Z" transform="translate(-370.861 -143.567)"/><path class="g" d="M328.287,157.488a55.672,55.672,0,0,0-1.939,10.425c0,4.607-4.122,15.517-4.364,19.638a76.742,76.742,0,0,1-3.637,16.971,3.246,3.246,0,0,1-5.819.485l-4.364-7.273s5.576-34.427,9.455-38.549C321.741,155.306,328.287,157.488,328.287,157.488Z" transform="translate(-308.164 -153.851)"/></g><path class="b" d="M388.464,30.766s6.3,1.7,7.031,3.879.727,4.121,1.212,4.607,1.94-1.7,2.425-1.212c.727.485.727,3.879-1.212,5.819s-2.667,5.091-3.152,8.728.242,5.334-.485,6.3a58.084,58.084,0,0,0-4.122,9.455c-.242,1.939.485,5.576,1.7,8.486a11.773,11.773,0,0,1,.727,5.819s2.425-4.849,2.182-6.789c0-1.939-.97-3.394-.485-5.576.727-2.182,5.334-9.7,5.576-11.153s2.424-4.607,2.667-10.183-.485-14.062-2.425-17.941c-2.182-3.879-5.091-5.334-8.485-4.849,0,0-1.7-1.212-5.334.97-3.394,2.182-4.849,7.516-4.607,10.425a21.871,21.871,0,0,1,.727-3.637C383.13,32.221,385.07,30.524,388.464,30.766Z" transform="translate(-295.57 -19.954)"/><ellipse class="c" cx="1.697" cy="2.667" rx="1.697" ry="2.667" transform="translate(103.88 23.005) rotate(-167.114)"/><path class="b" d="M352.868,141.094c0,.243-.242.243-.242.485-1.94,3.394-2.909,7.516-3.637,11.395-.243.727-.243,1.212-.485,1.939-.243.97-.97,1.94-1.212,2.909-.727,2.182-.242,4.849-.727,7.031a23.858,23.858,0,0,0,6.3-11.637c.242-.727.485-1.7.727-2.425a11.2,11.2,0,0,1,1.7-1.7l-.242.243-.727.727c-.242.243-.242.485-.485.97a4.492,4.492,0,0,0-.485,1.7,17.172,17.172,0,0,0-.242,3.394v0a19.033,19.033,0,0,1,.485-3.394c.243-.485.243-1.212.727-1.7.243-.242.243-.485.485-.727l.727-.727.727-.727c0-.243.242-.243.242-.485s.243-.243.243-.485a6.078,6.078,0,0,0,.97-1.7c.243-.727.485-1.212.727-1.939a12.06,12.06,0,0,0,.727-3.879Z" transform="translate(-268.459 -108.462)"/><path class="f" d="M385.381,180.1s.242-4.122,4.607-8.486,6.061-4.607,8.971-4.121c2.667.727,1.94,5.576,1.455,8.728-.727,3.152-.485,7.758-2.182,10.183s-3.394,6.061-4.364,7.758-6.3,8-7.758,9.7-3.637,3.879-6.546,3.879-11.395-.243-11.395-.243-1.94-5.091,0-8.486c0,0,6.788-.243,7.516-.243s.97-.485,1.212-.97.97-.485,1.455-1.212,3.152-4.607,3.394-5.091C381.987,191.254,385.381,181.8,385.381,180.1Z" transform="translate(-284.486 -129.286)"/><path class="c" d="M238.119,28.987a25.474,25.474,0,0,1-1.7,5.819v9.213l-6.789,6.789-7.516-7.758V35.533a36.117,36.117,0,0,1-1.455-7.516c0-2.667-.727-5.576,0-7.758s1.212-5.819,2.909-6.546,11.88-.727,12.85,0c1.455.97,2.425,4.607,2.425,6.061S238.119,28.987,238.119,28.987Z" transform="translate(-170.924 -10.174)"/><path class="d" d="M236.406,113.7c-3.637.97-7.758-3.879-8.243-4.364v7.516c2.909.485,12.607.97,14.3-8.486C242.467,108.368,240.043,112.974,236.406,113.7Z" transform="translate(-176.97 -83.736)"/><g transform="translate(47.602 13.173)"><ellipse class="c" cx="1.455" cy="3.636" rx="1.455" ry="3.636" transform="translate(21.062 7.723) rotate(-172.998)"/><ellipse class="c" cx="1.455" cy="3.636" rx="1.455" ry="3.636" transform="translate(0 0.355) rotate(-7.002)"/></g><path class="h" d="M219.415,15.66h.485s-.485-3.394.243-4.364a10.028,10.028,0,0,0,1.212-4.607,2.229,2.229,0,0,1,2.182-2.425c1.455,0,9.94.97,11.395.485s1.939.97,1.939,1.939-.242,3.394.243,4.364,0,4.364,0,4.364h.485a19.912,19.912,0,0,0,.97-5.091A9.934,9.934,0,0,0,232.992.87c-5.091-2.425-10.183.727-12.122,3.152C218.93,6.2,218.687,12.75,219.415,15.66Z" transform="translate(-169.918 0.001)"/><path class="i" d="M178.323,138.234A36.753,36.753,0,0,0,185.6,140.9c3.152.727,10.91,3.637,11.637,5.091l.97,1.455s-5.576,41.216-6.061,45.337-3.879,11.395-3.879,11.395-6.789,6.789-15.759,6.789c-9.213,0-19.881-4.849-21.335-7.516s-2.667-9.94-2.182-12.607-5.091-39.761-5.091-39.761.727-2.909,4.849-5.091c4.364-2.182,11.637-5.576,12.85-6.3s.97-.243.97-.243l4.122,4.607,2.667-.243,1.212-.243,5.334-.727Z" transform="translate(-111.856 -106.814)"/><g transform="translate(52.163 37.811)"><path class="b" d="M243.825,166.992c2.425-.97,5.091-.727,8,0a29.438,29.438,0,0,0-3.394,4.849,4.132,4.132,0,0,0-3.394,0c-.243-1.939-.485-2.909-1.939-4.121" transform="translate(-240.673 -166.353)"/><path class="b" d="M239.46,184.1l.485,1.7a68.889,68.889,0,0,1,.727,7.516c0,2.424-2.182,47.034-2.182,47.034a42.169,42.169,0,0,1-3.637,3.152,41.121,41.121,0,0,0-2.425-3.394s2.425-36.367,3.152-43.883.97-10.183.97-10.183Z" transform="translate(-232.429 -180.067)"/></g><g transform="translate(50.241 29.48)"><path class="e" d="M268.843,129.7s-.243,2.909-6.546,7.031a16.528,16.528,0,0,1,2.667,3.879,5.54,5.54,0,0,0,.727,1.7s3.394-4.849,4.364-6.546a7.163,7.163,0,0,0,.485-4.364Z" transform="translate(-253.586 -129.701)"/><path class="e" d="M231.713,140.272a15.355,15.355,0,0,0-3.152,5.576s-2.667-3.394-3.152-4.121-2.667-4.121-.485-7.758A13.1,13.1,0,0,0,231.713,140.272Z" transform="translate(-223.971 -132.998)"/><path class="e" d="M272.38,163.708a110.19,110.19,0,0,0-4.364,11.153,77.343,77.343,0,0,0-3.394,16.486v5.576c0,.485-.242.242-1.212.242s-8.486.243-11.637.485-7.273.727-7.273.727a39.668,39.668,0,0,0,0,8l7.516,2.182s.485.97,2.424.97a35.8,35.8,0,0,0,6.546-.727c2.667-.242,9.94.485,11.395.243s4.122-5.334,4.849-9.213c.97-3.879,2.667-20.85.243-29.093C275.046,162.739,272.38,163.708,272.38,163.708Z" transform="translate(-239.666 -155.95)"/></g><path class="c" d="M276.163,271.961a31.942,31.942,0,0,0,6.061-1.212c1.7-.727,4.364-.97,5.576-1.7a16.909,16.909,0,0,1,4.121-1.455c.97-.242,2.182-.97,2.909-1.212a6.018,6.018,0,0,1,2.182-.242c.97,0,4.607-.243,4.849.727s-.97,1.455-1.455,1.455a23.6,23.6,0,0,0-3.879.242,24.16,24.16,0,0,0-2.667.97s2.182-.242,3.152-.242,1.455.242,2.424.242a13.17,13.17,0,0,1,2.667.485,1.187,1.187,0,0,1,1.212,1.212c0,1.212-.97.97-1.939.727a16.682,16.682,0,0,0-3.152-.485h-1.939a23.4,23.4,0,0,1,2.909.485,8.613,8.613,0,0,0,2.425.485,1.13,1.13,0,0,1,1.212,1.455c-.243.97-1.212.727-1.939.485a14.308,14.308,0,0,0-3.394-.485h-3.879a53.317,53.317,0,0,1,5.576.243c.97.242,1.455.242,1.455.97s-.97.727-1.7.727a41.089,41.089,0,0,0-5.334.242,12.551,12.551,0,0,1-5.091.97c-2.424,0-5.576,0-7.273.727-1.455.727-3.879,1.7-3.879,1.7Z" transform="translate(-214.06 -205.629)"/><path class="e" d="M143.493,190.54s2.182-12.607-6.546-12.85c-4.849-.243-4.849,14.062-5.334,17.7-.243,3.637-.485,12.122,1.455,18.183s4.121,6.546,7.031,6.3,11.637-1.455,14.547-2.667c2.909-.97,12.607-5.819,12.607-5.819s-2.667-5.819-2.425-7.758c0,0-7.273,1.939-7.516,1.939-.485,0-2.425-.97-4.364-.727-2.182.485-9.455.97-9.455.97s1.7-6.546.97-10.183S143.493,190.54,143.493,190.54Z" transform="translate(-102.24 -137.3)"/><path class="c" d="M152.065,268.466a29.8,29.8,0,0,1-3.152.485,16.094,16.094,0,0,1-3.637-.727c-.485-.242-.97-1.7.243-1.7s1.939.727,3.879.727l1.939.242-.97-.485a14.8,14.8,0,0,0-3.152-.727,21.227,21.227,0,0,1-3.879-.485c-.485-.242-.97-.485-.727-1.212s.727-.727,1.7-.727a11.8,11.8,0,0,0,2.909.242,10.424,10.424,0,0,1,2.909.485c.727.243,1.7.485,1.7.485a3.553,3.553,0,0,0-.97-.485,8.608,8.608,0,0,1-2.182-.97c-.243,0-4.122-.485-4.122-.485s-1.939,0-1.939-1.212,3.152-.97,3.637-.727c.485,0,3.637.242,3.637.242a23.452,23.452,0,0,1-2.667-.727c-.243,0-2.667.243-2.182-1.939H147.7a13.048,13.048,0,0,0,1.939.243c.727.242,1.939.485,2.425.727s3.637,2.667,3.637,2.667a4.951,4.951,0,0,1,1.212,1.212c.485.727,2.667,4.122,2.667,4.122Z" transform="translate(-110.812 -199.952)"/><path class="h" d="M204.9,439.666c0-.97.243-2.182.243-4.122.485-5.576-4.364-18.911-4.364-18.911-13.335,9.7-26.184,8.971-39.034,0,0,0-1.212,9.94-2.424,14.547a43.08,43.08,0,0,0-.485,8.243l46.064.242Z" transform="translate(-123.396 -321.936)"/></svg>